# xmcd CD database file
#
# Track frame offsets:
#	150
#	15364
#	28144
#	43710
#	58105
#	74061
#	88899
#	103116
#	121216
#	136675
#	156671
#
# Disc length: 2315 seconds
#
# Revision: 0
# Processed by: cddbd v1.5.2PL0 Copyright (c) Steve Scherf et al.
# Submitted via: CDex 1.60beta1-cs1
#
DISCID=9b09090b
DTITLE=Lucy May - Whirlwind
DYEAR=2015
DGENRE=Country
TTITLE0=Whirlwind
TTITLE1=We Got It
TTITLE2=Paper Heart
TTITLE3=Looking Out a Window
TTITLE4=Rosemary Lane
TTITLE5=Hooked on Your Love
TTITLE6=Keep Your Hands Off My Man
TTITLE7=Don't Wake Me Up
TTITLE8=What You Looking At?
TTITLE9=Dishonest Things
TTITLE10=Hole in My Heart
EXTD=YEAR: 2015
EXTT0=
EXTT1=
EXTT2=
EXTT3=
EXTT4=
EXTT5=
EXTT6=
EXTT7=
EXTT8=
EXTT9=
EXTT10=
PLAYORDER=
